<svg width="186" height="68" viewBox="0 0 186 68" fill="none" xmlns="http://www.w3.org/2000/svg">
<path d="M151 14H161.606L186 33L161.606 54H151L175.394 33L151 14Z" fill="#303030"/>
<path d="M136 14H146.303L170 33L146.303 54H136L159.697 33L136 14Z" fill="#303030"/>
<path d="M36.315 18.725V50H31.185V28.58L21.645 50H18.09L8.505 28.58V50H3.375V18.725H8.91L19.89 43.25L30.825 18.725H36.315ZM48.1876 22.865V32.045H58.9876V36.23H48.1876V45.815H60.3376V50H43.0576V18.68H60.3376V22.865H48.1876ZM92.3513 50H87.2213L71.7863 26.645V50H66.6563V18.68H71.7863L87.2213 41.99V18.68H92.3513V50ZM104.173 18.725V38.66C104.173 41.03 104.788 42.815 106.018 44.015C107.278 45.215 109.018 45.815 111.238 45.815C113.488 45.815 115.228 45.215 116.458 44.015C117.718 42.815 118.348 41.03 118.348 38.66V18.725H123.478V38.57C123.478 41.12 122.923 43.28 121.813 45.05C120.703 46.82 119.218 48.14 117.358 49.01C115.498 49.88 113.443 50.315 111.193 50.315C108.943 50.315 106.888 49.88 105.028 49.01C103.198 48.14 101.743 46.82 100.663 45.05C99.5829 43.28 99.0429 41.12 99.0429 38.57V18.725H104.173Z" fill="black"/>
</svg>
